<svg width="19" height="19" viewBox="0 0 19 19" fill="none" xmlns="http://www.w3.org/2000/svg">
<path d="M11.9475 3.07318C11.2466 3.77616 11.2466 4.91601 11.9475 5.619L13.2166 6.89191C13.4712 7.14728 13.7832 7.3099 14.1109 7.37978C14.4616 7.45456 14.7845 7.77059 14.6883 8.11626C14.2434 9.7154 13.3895 11.1703 12.2115 12.3365C11.0334 13.5028 9.57182 14.3401 7.97178 14.7653C7.683 14.842 7.42097 14.5757 7.37977 14.2796C7.32769 13.9054 7.15817 13.5445 6.87127 13.2568L5.60217 11.9838C4.90129 11.2808 3.76485 11.2808 3.06397 11.9838L0.525661 14.5297C-0.17522 15.2327 -0.17522 16.3726 0.525661 17.0755C1.0367 17.5881 1.52271 18.229 2.13983 18.6193C2.80193 19.0187 3.6668 18.9644 4.43948 18.99C5.71553 19.0323 7.70468 18.9469 8.98662 18.6062C11.2539 18.0036 13.3249 16.8171 14.9943 15.1645C16.6638 13.5119 17.8736 11.4504 18.5042 9.18437C18.9243 7.67415 19 6.36072 19 4.55509C19 3.65227 18.9873 2.76143 18.506 2.05708C18.4441 1.96664 18.3732 1.8806 18.2931 1.80026L17.024 0.52724C16.3231 -0.175747 15.1866 -0.175747 14.4858 0.52724L11.9475 3.07318Z" fill="white"/>
<path d="M14.6631 0.704102C15.2663 0.0991001 16.2435 0.0990998 16.8467 0.704102L18.1162 1.97656C18.1854 2.04594 18.2466 2.12044 18.2998 2.19824C18.7301 2.82815 18.75 3.63698 18.75 4.55469C18.75 6.35291 18.6746 7.63991 18.2637 9.11719C17.6448 11.3413 16.4568 13.3645 14.8184 14.9863C13.1801 16.6082 11.1477 17.7728 8.92285 18.3643C7.67635 18.6956 5.71588 18.7822 4.44824 18.7402C4.04427 18.7268 3.65827 18.7347 3.27344 18.6963C2.89624 18.6586 2.55695 18.5778 2.27148 18.4062C1.98932 18.2274 1.73085 17.9873 1.47363 17.7197C1.2301 17.4664 0.954168 17.1513 0.703125 16.8994C0.0995221 16.294 0.0995218 15.3115 0.703125 14.7061L3.24121 12.1602C3.84434 11.5554 4.82165 11.5554 5.4248 12.1602L6.69434 13.4336C6.94145 13.6815 7.08698 13.9922 7.13184 14.3145C7.16058 14.5203 7.26541 14.7153 7.41797 14.8496C7.57341 14.9865 7.79461 15.071 8.03613 15.0068C9.67834 14.5704 11.1787 13.7106 12.3877 12.5137C13.5964 11.317 14.4722 9.82423 14.9287 8.18359C15.0044 7.9117 14.9093 7.66267 14.7568 7.48438C14.6067 7.30885 14.3891 7.18397 14.1631 7.13574C13.8814 7.07569 13.613 6.93583 13.3936 6.71582L12.124 5.44238C11.5208 4.83707 11.5209 3.85535 12.124 3.25L14.6631 0.704102Z" stroke="white" stroke-opacity="0.3" stroke-width="0.5"/>
</svg>
